<svg version="1.1" id="Layer_1" xmlns="http://www.w3.org/2000/svg" xmlns:xlink="http://www.w3.org/1999/xlink" x="0px" y="0px"
	 width="100%" viewBox="0 0 1536 1024" enable-background="new 0 0 1536 1024" xml:space="preserve">
<path fill="none" opacity="0" stroke="none" d="M844.000000,1025.000000 C562.666687,1025.000000 281.833344,1025.000000 1.000000,1025.000000 C1.000000,683.666687 1.000000,342.333344 1.000000,1.000000 C513.000000,1.000000 1025.000000,1.000000 1537.000000,1.000000 C1537.000000,342.333344 1537.000000,683.666687 1537.000000,1025.000000 C1306.166626,1025.000000 1075.333374,1025.000000 844.000000,1025.000000z"/>
<path fill="#8F8373" opacity="1.000000" stroke="none" d="M217.870209,561.374268 C205.886108,558.643311 198.413727,549.111145 199.479187,538.334656 C200.593140,527.067688 210.113800,518.397278 221.879120,518.181824 C230.361710,518.026367 238.849426,518.151550 247.849915,518.151550 C250.892273,504.771271 253.893707,491.571045 257.040833,477.730042 C247.942871,477.730042 239.302124,477.832611 230.664642,477.708557 C212.967499,477.454437 202.144989,460.699921 210.142532,445.824951 C214.386017,437.932343 221.416412,434.234528 230.255966,434.138947 C240.418411,434.029053 250.590256,433.948364 260.743988,434.282104 C264.847137,434.416962 266.521179,433.277863 267.369110,429.114838 C269.959930,416.394348 272.894104,403.736267 276.021240,391.134949 C278.411255,381.503937 286.120850,375.404785 295.782104,374.837982 C306.145966,374.229950 314.706879,378.834412 317.585846,387.899414 C319.023834,392.427307 319.080872,397.778534 318.332794,402.532318 C316.965057,411.223816 314.517822,419.744232 312.562622,428.345459 C312.170105,430.071930 311.963623,431.840729 311.565674,434.222504 C326.263672,434.222504 340.397095,434.317139 354.523132,434.037231 C355.616760,434.015564 357.254700,431.503357 357.629150,429.911102 C360.486938,417.759430 363.152191,405.561218 365.761017,393.352661 C368.124664,382.291565 376.840515,375.013611 388.084351,374.902679 C402.229614,374.763092 412.401672,387.100983 409.417511,401.035370 C407.291779,410.961273 404.831818,420.815460 402.536407,430.705261 C402.315979,431.655090 402.205017,432.630371 401.948669,434.156799 C407.356476,434.156799 412.497437,434.124939 417.637848,434.163086 C430.749512,434.260376 440.983917,444.116974 440.936157,456.566315 C440.889618,468.701508 431.110596,477.767609 417.902710,477.850311 C409.759521,477.901306 401.615753,477.859772 393.119904,477.859772 C390.001801,491.196106 386.947052,504.261536 383.715607,518.082825 C392.739532,518.082825 401.310059,518.035583 409.879791,518.095337 C419.594543,518.163086 428.618134,525.100769 430.983887,534.210327 C434.759674,548.749146 425.050598,561.540039 409.825989,561.787415 C398.179108,561.976685 386.526672,561.825073 374.474213,561.825073 C371.992584,572.303894 369.532501,582.607788 367.119476,592.922668 C366.171783,596.973694 365.377106,601.060608 364.429688,605.111755 C361.891205,615.965759 351.633514,622.980408 340.343292,621.630066 C328.673370,620.234314 320.258972,611.587036 321.034363,600.152039 C321.580750,592.094055 324.019836,584.162292 325.643005,576.180176 C326.566162,571.640381 327.548035,567.112549 328.656525,561.853149 C325.924194,561.853149 323.807251,561.853638 321.690338,561.853088 C310.526672,561.850403 299.361389,561.952209 288.200409,561.778076 C285.028076,561.728577 283.479584,562.518677 282.749420,565.863586 C280.017151,578.380615 276.815613,590.795105 274.073273,603.310059 C271.334900,615.807129 259.922638,623.353333 246.984375,620.879150 C235.421478,618.667908 228.240112,607.563293 230.724731,595.133972 C232.906021,584.222046 235.526810,573.398010 238.188614,561.482544 C231.175461,561.482544 224.730270,561.482544 217.870209,561.374268 M325.499908,477.751770 C321.176880,477.753937 316.853851,477.757416 312.530823,477.757965 C302.604645,477.759277 302.579773,477.752991 300.361420,487.432037 C298.069672,497.431122 295.833008,507.442841 293.421295,518.117126 C304.408234,518.117126 314.676422,518.126282 324.944611,518.114929 C338.737701,518.099731 338.766541,518.099304 341.759491,504.670471 C343.699341,495.966522 345.539917,487.240479 347.591553,477.754211 C340.060944,477.754211 333.280396,477.754211 325.499908,477.751770z"/>
<path fill="#8F8373" opacity="1.000000" stroke="none" d="M607.873474,541.000000 C607.873657,549.484131 607.873657,557.468323 607.873657,565.930542 C599.824646,565.930542 591.958496,565.930542 583.420776,565.930542 C583.420776,547.534973 583.420776,529.167664 583.420776,510.407654 C562.027161,510.407654 541.294800,510.407654 520.025635,510.407654 C520.025635,528.734192 520.025635,547.105530 520.025635,565.817322 C511.602905,565.817322 503.707764,565.817322 495.467346,565.817322 C495.467346,523.028809 495.467346,480.332855 495.467346,437.358826 C503.423035,437.358826 511.186127,437.358826 519.631592,437.358826 C519.631592,454.918549 519.631592,472.471069 519.631592,490.475952 C541.014282,490.475952 561.722290,490.475952 583.071533,490.475952 C583.071533,472.904480 583.071533,455.358032 583.071533,437.468994 C591.447876,437.468994 599.197937,437.468994 607.873291,437.468994 C607.873291,471.744659 607.873291,506.122314 607.873474,541.000000z"/>
<path fill="#8E8272" opacity="1.000000" stroke="none" d="M912.134949,540.000000 C912.114014,530.174011 912.151062,520.847412 912.055725,511.522186 C911.909119,497.177765 906.117798,490.864868 893.025818,490.622772 C879.367188,490.370209 869.143433,499.179657 868.938354,511.928284 C868.675964,528.244751 868.844849,544.568054 868.810913,560.888428 C868.807861,562.368225 868.681702,563.847778 868.593140,565.747742 C861.226501,565.747742 854.009216,565.747742 846.383179,565.747742 C846.383179,522.147644 846.383179,478.443146 846.383179,434.329773 C853.524109,434.329773 860.753601,434.329773 868.503296,434.329773 C868.503296,451.187805 868.503296,468.222504 868.503296,485.290466 C873.449036,482.189697 877.754822,478.783752 882.606506,476.579529 C897.737000,469.705505 916.815063,472.861572 926.824768,483.210876 C931.872620,488.429932 934.368958,494.875305 934.492737,501.729156 C934.876831,522.995483 934.633240,544.273132 934.633240,565.866699 C927.260681,565.866699 920.024353,565.866699 912.133606,565.866699 C912.133606,557.359375 912.133606,548.929688 912.134949,540.000000z"/>
<path fill="#8E8272" opacity="1.000000" stroke="none" d="M375.000000,311.835480 C412.313019,311.826660 449.126038,311.797546 485.939056,311.819397 C497.474335,311.826233 503.001221,317.464386 503.008789,329.034851 C503.022552,350.023315 503.046112,371.011780 503.039062,392.000244 C503.036285,400.294739 499.158203,404.062042 490.761566,404.033081 C482.967072,404.006195 479.050659,399.951447 479.044617,391.833282 C479.031128,373.689728 479.040375,355.546143 479.040375,336.751984 C476.200684,336.573242 473.633423,336.273010 471.065887,336.270721 C430.254974,336.234283 389.444061,336.248444 348.633118,336.218933 C339.993896,336.212677 334.978180,331.556061 335.059357,323.786377 C335.133606,316.683472 339.747620,311.919037 347.015167,311.821716 C356.175079,311.699066 365.338226,311.819427 375.000000,311.835480z"/>
<path fill="#8F8373" opacity="1.000000" stroke="none" d="M461.995972,658.891479 C467.780945,658.892090 473.066986,658.892090 479.049377,658.892090 C479.049377,656.007874 479.049896,653.739441 479.049286,651.471069 C479.045319,636.650269 479.029999,621.829529 479.041473,607.008728 C479.047485,599.238770 483.781708,594.425293 491.335846,594.447632 C498.154510,594.467773 502.946045,599.426514 502.968811,606.689636 C503.031433,626.672546 503.064392,646.655640 503.032593,666.638611 C503.016296,676.876404 497.173096,682.756592 486.884705,682.772827 C450.082764,682.830994 413.280640,682.806641 376.478607,682.809326 C367.153229,682.810059 357.827820,682.799866 348.502441,682.786255 C339.858246,682.773621 334.961914,678.264526 334.977417,670.346008 C334.992218,662.782471 339.420624,658.889954 348.092834,658.888367 C385.894257,658.881409 423.695648,658.888733 461.995972,658.891479z"/>
<path fill="#8F8373" opacity="1.000000" stroke="none" d="M1335.518311,479.374023 C1343.535645,502.003632 1351.399170,524.276733 1359.634766,547.603516 C1361.664429,541.462646 1363.399902,536.202148 1365.141724,530.943726 C1370.847046,513.719360 1376.479858,496.470032 1382.394531,479.317841 C1382.901978,477.845947 1385.191040,476.249542 1386.817139,476.049713 C1390.699341,475.572601 1394.679932,475.895813 1398.990112,475.895813 C1391.618042,496.844574 1384.376953,517.375305 1377.171753,537.918518 C1374.306396,546.088074 1371.386597,554.242981 1368.771973,562.493408 C1367.882935,565.298584 1366.784790,566.526428 1363.620972,566.432312 C1351.476929,566.071472 1351.567993,566.152405 1347.544922,554.557861 C1341.378784,536.787476 1335.074951,519.064758 1328.801636,501.331848 C1328.316406,499.960144 1327.609375,498.666931 1326.535645,496.303009 C1324.360229,502.474518 1322.495850,507.679657 1320.689209,512.904846 C1314.977417,529.425232 1309.199585,545.923828 1303.671509,562.505676 C1302.696533,565.430481 1301.380737,566.259094 1298.390015,566.229919 C1285.670654,566.105835 1286.005981,566.096375 1281.840454,553.731750 C1273.922485,530.228577 1265.578735,506.868896 1257.411255,483.449829 C1256.604736,481.137207 1255.794922,478.825836 1254.681274,475.640106 C1259.652588,475.640106 1263.986450,475.281433 1268.201050,475.833405 C1269.688599,476.028229 1271.543823,478.222992 1272.113281,479.887177 C1278.850342,499.573883 1285.373535,519.333679 1291.958496,539.072449 C1292.739380,541.413025 1293.554077,543.742249 1294.874146,547.598999 C1296.005249,544.722046 1296.683716,543.184204 1297.221924,541.598816 C1304.127808,521.261902 1311.118408,500.952637 1317.810791,480.545624 C1319.070190,476.705658 1320.826172,474.970490 1324.875244,475.526642 C1326.837891,475.796234 1329.007568,475.140869 1330.824707,475.718567 C1332.516479,476.256470 1333.864868,477.874786 1335.518311,479.374023z"/>
<path fill="#8F8373" opacity="1.000000" stroke="none" d="M694.286987,503.100494 C692.369690,494.791595 688.091187,490.899780 679.724121,489.886719 C670.649719,488.788025 662.224182,490.741669 654.411011,495.566040 C648.144958,499.435120 647.833252,499.335510 642.590881,494.031036 C640.401917,491.816071 638.348267,489.467316 636.090942,487.025604 C646.440674,477.846924 658.449280,474.223724 671.234558,473.381927 C677.779602,472.950989 684.600342,473.515900 691.015442,474.917297 C708.251282,478.682465 717.635254,490.723999 717.901978,508.483643 C718.034546,517.306580 717.942200,526.133850 717.875061,534.958618 C717.796570,545.271423 717.151123,555.639282 722.198486,566.100403 C715.521057,566.100403 709.598389,566.347534 703.723450,565.927002 C702.250977,565.821594 700.602600,563.780701 699.628967,562.251160 C698.503784,560.483643 698.035156,558.298096 697.021729,555.603210 C689.757996,562.645081 681.239136,566.259888 671.698975,567.537537 C662.242615,568.804077 653.059509,567.959534 644.488770,563.490784 C629.125244,555.480469 627.641235,534.283875 641.533020,523.895508 C650.303894,517.336548 660.463928,515.222778 670.971008,514.059143 C678.721680,513.200745 686.487122,512.475586 694.986877,511.616119 C694.775940,508.973694 694.558044,506.244324 694.286987,503.100494 M664.931213,529.224976 C663.044739,530.265808 660.946045,531.050537 659.315674,532.400635 C655.864746,535.258301 654.369080,539.041565 655.335083,543.545410 C656.274597,547.926147 659.216675,550.749756 663.394775,551.499451 C672.067200,553.055542 680.862061,553.060913 688.473694,548.004639 C691.232910,546.171753 693.748718,542.638245 694.499023,539.440430 C695.523682,535.073669 694.754883,530.286011 694.754883,524.219849 C684.544739,525.899841 675.114746,527.451477 664.931213,529.224976z"/>
<path fill="#8F8373" opacity="1.000000" stroke="none" d="M168.301483,658.871887 C211.261475,658.881653 254.221466,658.881470 297.181458,658.909973 C305.272034,658.915405 309.935486,663.200684 309.826843,670.377625 C309.706360,678.331909 304.994232,682.828735 296.832184,682.827393 C252.206757,682.820129 207.580704,682.690796 162.956314,682.906494 C150.856735,682.964966 142.871445,677.442139 143.392532,662.838562 C144.425034,633.902466 143.708618,604.903931 144.188034,575.472412 C149.541321,576.053284 150.449799,579.403381 149.598618,583.671265 C149.211868,585.610352 147.764542,587.735229 148.222946,589.378418 C150.509918,597.576294 146.634872,606.288635 150.494781,614.314758 C150.843506,615.039856 150.289413,616.215698 150.112595,617.174500 C147.883408,629.262756 148.812393,640.967102 154.536682,652.024841 C157.612579,657.966736 162.573151,660.344360 168.301483,658.871887z"/>
<path fill="#908474" opacity="1.000000" stroke="none" d="M762.327271,565.740845 C756.131470,563.151611 750.328430,560.675537 744.527771,558.193970 C741.203247,556.771851 740.990051,554.609070 743.026611,551.897034 C743.425598,551.365723 743.744629,550.774963 744.114380,550.220886 C750.041931,541.336975 750.043701,541.334961 759.398071,546.447021 C768.391724,551.361877 778.042114,552.563049 787.972351,550.850952 C790.928162,550.341309 794.138306,548.839722 796.315857,546.809937 C800.512451,542.898010 799.133362,535.816711 793.633240,533.612305 C787.798401,531.273743 781.552185,529.972168 775.511658,528.132385 C770.103760,526.485229 764.547791,525.146484 759.383972,522.915222 C750.593628,519.117065 744.549255,512.847778 743.944824,502.629669 C743.302368,491.769379 748.170349,483.357666 757.487915,478.893829 C777.414307,469.347534 797.193481,471.236481 816.174622,482.326569 C816.600403,482.575287 816.976379,482.928375 817.325378,483.282349 C817.550598,483.510864 817.683838,483.829926 818.344727,484.884766 C815.940247,487.963531 813.586792,491.571198 810.575073,494.502533 C809.556458,495.493958 806.584290,495.427094 804.995972,494.728027 C795.697876,490.635773 786.299683,487.608734 775.978516,489.856384 C774.686829,490.137665 773.030151,490.263092 772.255981,491.111664 C770.033081,493.548035 766.746399,496.248962 766.613586,498.979065 C766.500671,501.300354 769.721191,504.999298 772.284485,506.005219 C779.689453,508.911072 787.525452,510.705811 795.154907,513.057617 C798.966736,514.232727 802.786682,515.463074 806.446899,517.032288 C815.243225,520.803406 820.827148,527.169861 821.373535,537.082458 C821.901001,546.652161 818.126160,554.353882 810.347595,559.846741 C798.442200,568.253723 784.873413,568.801880 771.036194,567.493286 C768.237793,567.228577 765.491394,566.413208 762.327271,565.740845z"/>
<path fill="#8F8373" opacity="1.000000" stroke="none" d="M143.940491,330.994751 C142.976120,317.046387 148.310135,311.707123 162.448105,311.747040 C207.247910,311.873566 252.048187,311.825378 296.848267,311.876892 C305.549408,311.886902 310.727478,317.520599 309.817596,325.808685 C309.159729,331.801483 305.058044,335.917328 298.992096,336.208252 C294.013702,336.446991 289.015503,336.282776 284.026093,336.280701 C246.886902,336.265198 209.747711,336.233643 172.608582,336.269775 C171.078796,336.271271 169.549606,336.895477 167.498962,337.618988 C160.114716,338.626862 158.137451,344.048767 155.985199,349.252228 C153.668594,354.853058 150.058319,359.122955 144.159454,361.138367 C144.000854,355.729431 143.842255,350.320526 144.174973,344.464630 C146.950470,343.892609 149.389130,344.168121 151.419632,343.385162 C151.988739,343.165710 152.065445,339.310211 151.127853,338.032959 C149.169846,335.365509 146.385437,333.304718 143.940491,330.994751z"/>
<path fill="#8E8272" opacity="1.000000" stroke="none" d="M1090.764648,496.852661 C1092.121826,497.912720 1093.644897,498.903778 1093.763916,500.041718 C1094.107544,503.325897 1093.885376,506.669281 1093.885376,510.793365 C1084.367554,510.793365 1075.123169,510.793335 1065.878784,510.793335 C1056.592407,510.793335 1047.306152,510.793365 1037.550049,510.793365 C1037.550049,529.489563 1037.550049,547.560913 1037.550049,565.908203 C1031.811401,565.908203 1026.549927,565.908203 1020.866211,565.908203 C1020.866211,523.435242 1020.866211,481.072662 1020.866211,438.428284 C1047.550171,438.428284 1074.140625,438.428284 1101.178589,438.428284 C1101.178589,442.715973 1101.178589,447.069366 1101.178589,451.954224 C1080.120117,451.954224 1059.208252,451.954224 1037.954712,451.954224 C1037.954712,467.048340 1037.954712,481.621918 1037.954712,496.850769 C1055.425171,496.850769 1072.857178,496.850769 1090.764648,496.852661z"/>
<path fill="#8E8272" opacity="1.000000" stroke="none" d="M1238.160767,488.864014 C1253.030762,507.253021 1250.708740,537.233459 1239.846558,551.100342 C1227.184692,567.264587 1209.833984,570.790283 1190.834961,566.426941 C1172.365479,562.185181 1162.357178,549.154968 1159.280640,531.047974 C1156.545654,514.951538 1159.009888,499.618317 1170.702637,487.224640 C1188.701660,468.146545 1219.896484,468.923553 1238.160767,488.864014 M1221.578491,492.867981 C1207.133423,481.389038 1187.162476,484.781708 1179.431885,500.566711 C1173.018677,513.661987 1172.904175,527.513916 1179.049683,540.656494 C1187.375854,558.462402 1212.841553,560.848022 1225.003906,545.641296 C1234.927734,533.233459 1234.644287,503.273804 1221.578491,492.867981z"/>
<path fill="#8B7F6E" opacity="1.000000" stroke="none" d="M144.022369,361.500061 C150.058319,359.122955 153.668594,354.853058 155.985199,349.252228 C158.137451,344.048767 160.114716,338.626862 167.347885,338.008270 C167.804657,339.499054 167.966507,340.989868 167.966995,342.480774 C167.980774,384.764862 167.987991,427.048950 167.971054,469.333038 C167.967270,478.789398 161.205872,484.047974 152.030823,481.816040 C147.345276,480.676208 143.725189,476.359772 143.725021,471.225403 C143.723831,434.770844 143.820068,398.316284 144.022369,361.500061z"/>
<path fill="#8A7E6D" opacity="1.000000" stroke="none" d="M168.201187,658.421814 C162.573151,660.344360 157.612579,657.966736 154.536682,652.024841 C148.812393,640.967102 147.883408,629.262756 150.112595,617.174500 C150.289413,616.215698 150.843506,615.039856 150.494781,614.314758 C146.634872,606.288635 150.509918,597.576294 148.222946,589.378418 C147.764542,587.735229 149.211868,585.610352 149.598618,583.671265 C150.449799,579.403381 149.541321,576.053284 144.274872,575.010620 C143.829880,555.692200 143.690933,536.376526 143.761353,517.061707 C143.782196,511.345581 148.888031,507.112579 155.265945,506.944672 C162.076004,506.765381 167.362793,510.947845 167.970230,517.078979 C168.117310,518.563477 167.995987,520.074585 167.997131,521.573486 C168.031784,567.039551 168.066330,612.505676 168.201187,658.421814z"/>
<path fill="#8E8272" opacity="1.000000" stroke="none" d="M964.827271,527.000000 C964.829407,509.551666 964.829407,492.603363 964.829407,475.261230 C972.594360,475.261230 980.112122,475.261230 987.934143,475.261230 C987.934143,505.489777 987.934143,535.502869 987.934143,565.852844 C980.307373,565.852844 972.919006,565.852844 964.825134,565.852844 C964.825134,552.973022 964.825134,540.236511 964.827271,527.000000z"/>
<path fill="#8B7F6E" opacity="1.000000" stroke="none" d="M1136.214111,471.000000 C1136.214722,502.812653 1136.214722,534.125305 1136.214722,565.815979 C1131.275146,565.815979 1126.520996,565.815979 1121.322754,565.815979 C1121.322754,522.258606 1121.322754,478.537903 1121.322754,434.418793 C1125.904053,434.418793 1130.640503,434.418793 1136.213379,434.418793 C1136.213379,446.349884 1136.213379,458.424927 1136.214111,471.000000z"/>
<path fill="#908474" opacity="1.000000" stroke="none" d="M989.226807,439.924713 C992.969543,447.285889 992.140991,453.563354 987.113831,457.871826 C982.187256,462.094055 973.440369,462.171997 968.092896,458.041443 C963.196777,454.259613 961.537842,447.637268 964.067688,441.891876 C968.176575,432.560516 982.593079,430.726807 989.226807,439.924713z"/>
<path fill="#8B7F6E" opacity="1.000000" stroke="none" d="M143.861603,331.453003 C146.385437,333.304718 149.169846,335.365509 151.127853,338.032959 C152.065445,339.310211 151.988739,343.165710 151.419632,343.385162 C149.389130,344.168121 146.950470,343.892609 144.256485,344.013153 C143.825378,339.976196 143.804062,335.943726 143.861603,331.453003z"/>
<path fill="#FDFDFC" opacity="1.000000" stroke="none" d="M325.999878,477.752991 C333.280396,477.754211 340.060944,477.754211 347.591553,477.754211 C345.539917,487.240479 343.699341,495.966522 341.759491,504.670471 C338.766541,518.099304 338.737701,518.099731 324.944611,518.114929 C314.676422,518.126282 304.408234,518.117126 293.421295,518.117126 C295.833008,507.442841 298.069672,497.431122 300.361420,487.432037 C302.579773,477.752991 302.604645,477.759277 312.530823,477.757965 C316.853851,477.757416 321.176880,477.753937 325.999878,477.752991z"/>
<path fill="#FDFDFC" opacity="1.000000" stroke="none" d="M665.307983,529.114014 C675.114746,527.451477 684.544739,525.899841 694.754883,524.219849 C694.754883,530.286011 695.523682,535.073669 694.499023,539.440430 C693.748718,542.638245 691.232910,546.171753 688.473694,548.004639 C680.862061,553.060913 672.067200,553.055542 663.394775,551.499451 C659.216675,550.749756 656.274597,547.926147 655.335083,543.545410 C654.369080,539.041565 655.864746,535.258301 659.315674,532.400635 C660.946045,531.050537 663.044739,530.265808 665.307983,529.114014z"/>
<path fill="#FDFDFC" opacity="1.000000" stroke="none" d="M1221.845947,493.107605 C1234.644287,503.273804 1234.927734,533.233459 1225.003906,545.641296 C1212.841553,560.848022 1187.375854,558.462402 1179.049683,540.656494 C1172.904175,527.513916 1173.018677,513.661987 1179.431885,500.566711 C1187.162476,484.781708 1207.133423,481.389038 1221.845947,493.107605z"/>
</svg>
